<?xml version="1.0" encoding="utf-8"?>
<!-- Generator: Adobe Illustrator 16.0.0, SVG Export Plug-In . SVG Version: 6.00 Build 0)  -->
<!DOCTYPE svg PUBLIC "-//W3C//DTD SVG 1.0//EN" "http://www.w3.org/TR/2001/REC-SVG-20010904/DTD/svg10.dtd">
<svg version="1.0" id="Layer_1" xmlns="http://www.w3.org/2000/svg" xmlns:xlink="http://www.w3.org/1999/xlink" x="0px" y="0px"
	 width="100px" height="100px" viewBox="0 0 100 100" enable-background="new 0 0 100 100" xml:space="preserve">
<path d="M50,10c-22.09,0-40,17.909-40,40c0,22.09,17.91,40,40,40s40-17.91,40-40C90,27.909,72.09,10,50,10z M50,83.333
	c-18.411,0-33.333-14.925-33.333-33.333c0-18.41,14.922-33.333,33.333-33.333c17.285,0,31.491,13.156,33.164,30H38.047l8.62-8.62
	l-4.714-4.713l-14.31,14.31c-1.303,1.299-1.303,3.412,0,4.714l14.31,14.31l4.714-4.711l-8.62-8.622h45.117
	C81.491,70.176,67.285,83.333,50,83.333z"/>
</svg>
