<?xml version="1.0" encoding="utf-8"?>
<!-- Generator: Adobe Illustrator 16.0.0, SVG Export Plug-In . SVG Version: 6.00 Build 0)  -->
<!DOCTYPE svg PUBLIC "-//W3C//DTD SVG 1.0//EN" "http://www.w3.org/TR/2001/REC-SVG-20010904/DTD/svg10.dtd">
<svg version="1.0" id="Layer_1" xmlns="http://www.w3.org/2000/svg" xmlns:xlink="http://www.w3.org/1999/xlink" x="0px" y="0px"
	 width="100px" height="100px" viewBox="0 0 100 100" enable-background="new 0 0 100 100" xml:space="preserve">
<path d="M50,10c-22.09,0-40,17.91-40,40s17.91,40,40,40s40-17.91,40-40S72.09,10,50,10z M50,83.333
	c-17.285,0-31.491-13.157-33.164-29.999h45.117l-8.62,8.619l4.714,4.714l14.31-14.31c1.303-1.299,1.303-3.412,0-4.714l-14.31-14.31
	l-4.714,4.71l8.62,8.623H16.836c1.673-16.842,15.879-30,33.164-30c18.411,0,33.333,14.925,33.333,33.333
	C83.333,68.411,68.411,83.333,50,83.333z"/>
</svg>
